<svg width="150" height="130" viewBox="0 0 150 130" fill="none" xmlns="http://www.w3.org/2000/svg">
<path fill-rule="evenodd" clip-rule="evenodd" d="M51.7188 51.4559C49.4469 47.5328 48.1465 42.9786 48.1465 38.1231C48.1465 33.2673 49.4475 28.7129 51.7188 24.7896C56.2524 24.7839 60.8469 25.9346 65.0525 28.3626C69.2576 30.7903 72.551 34.1937 74.8127 38.1224L74.8122 38.1231H74.8133C79.4073 46.1025 79.7437 56.2489 74.8127 64.7896C64.9509 64.7896 56.3325 59.4244 51.7188 51.4563V51.4559Z" fill="#0F62FE" fill-opacity="0.4"/>
<path fill-rule="evenodd" clip-rule="evenodd" d="M74.8123 64.7896C69.8813 56.2489 70.2183 46.1025 74.8117 38.1231H74.8128L74.8123 38.1224C77.0745 34.1937 80.368 30.7903 84.5731 28.3626C88.7781 25.9346 93.3726 24.7839 97.9062 24.7896C100.178 28.7129 101.479 33.2673 101.479 38.1231C101.479 42.9786 100.178 47.5328 97.9068 51.4559H97.9062L97.9068 51.4563C93.2931 59.4244 84.6741 64.7896 74.8123 64.7896Z" fill="#0F62FE" fill-opacity="0.3"/>
<path fill-rule="evenodd" clip-rule="evenodd" d="M51.7187 78.1229C47.1852 78.1285 42.5909 76.9777 38.386 74.55C34.1807 72.1224 30.8868 68.7188 28.625 64.7898C30.8868 60.8606 34.1807 57.4569 38.386 55.0291C42.5909 52.6013 47.1852 51.4505 51.7187 51.4561C60.9264 51.4675 69.8817 56.249 74.8127 64.7898C69.8817 73.3303 60.9264 78.1116 51.7187 78.1229Z" fill="#0F62FE" fill-opacity="0.5"/>
<path fill-rule="evenodd" clip-rule="evenodd" d="M74.8125 64.7898C79.7434 56.249 88.6993 51.4675 97.9064 51.4561L97.907 51.4565V51.4561C102.44 51.4505 107.035 52.6013 111.24 55.0291C115.445 57.4569 118.739 60.8606 121 64.7898C118.739 68.7188 115.445 72.1224 111.24 74.55C107.035 76.9777 102.44 78.1285 97.907 78.1229H97.9064C88.6993 78.1116 79.7434 73.3303 74.8125 64.7898Z" fill="#0F62FE" fill-opacity="0.8"/>
<path fill-rule="evenodd" clip-rule="evenodd" d="M74.8122 91.4558L74.8127 91.4564C72.551 95.3849 69.2576 98.7884 65.0525 101.216C60.8469 103.644 56.2524 104.795 51.7188 104.79C49.4475 100.866 48.1465 96.3117 48.1465 91.4558C48.1465 86.6 49.4469 82.0461 51.7188 78.1227C56.3325 70.1545 64.9509 64.7896 74.8127 64.7896C79.7437 73.33 79.4073 83.4764 74.8133 91.4558H74.8122Z" fill="#0F62FE" fill-opacity="0.6"/>
<path fill-rule="evenodd" clip-rule="evenodd" d="M74.8128 91.4558H74.8117C70.2183 83.4764 69.8813 73.33 74.8123 64.7896C84.6741 64.7896 93.2931 70.1545 97.9068 78.1227C100.178 82.0461 101.479 86.6 101.479 91.4558C101.479 96.3117 100.178 100.866 97.9062 104.79C93.3726 104.795 88.7781 103.644 84.5731 101.216C80.368 98.7884 77.0745 95.3849 74.8123 91.4564L74.8128 91.4558Z" fill="#0F62FE" fill-opacity="0.7"/>
<g opacity="0.3">
<path fill-rule="evenodd" clip-rule="evenodd" d="M37.4059 43.1927C33.7261 36.8382 31.6196 29.4616 31.6196 21.5969C31.6196 13.7318 33.727 6.35476 37.4059 3.41357e-05C44.7491 -0.00919973 52.191 1.85476 59.0031 5.78738C65.8142 9.71973 71.1488 15.2323 74.8122 21.5958L74.8113 21.5969H74.8131C82.2541 34.5216 82.799 50.9562 74.8122 64.7899C58.8385 64.7899 44.8789 56.0996 37.4059 43.1933V43.1927Z" fill="#0F62FE" fill-opacity="0.4"/>
<path fill-rule="evenodd" clip-rule="evenodd" d="M74.8113 64.7899C66.8245 50.9562 67.3703 34.5216 74.8104 21.5969H74.8122L74.8113 21.5958C78.4756 15.2323 83.8102 9.71973 90.6213 5.78738C97.4324 1.85476 104.874 -0.00919973 112.218 3.41357e-05C115.897 6.35476 118.004 13.7318 118.004 21.5969C118.004 29.4616 115.897 36.8382 112.219 43.1927H112.218L112.219 43.1933C104.745 56.0996 90.785 64.7899 74.8113 64.7899Z" fill="#0F62FE" fill-opacity="0.3"/>
<path fill-rule="evenodd" clip-rule="evenodd" d="M37.4059 86.3869C30.0627 86.396 22.6212 84.5319 15.8103 80.5997C8.99882 76.6675 3.66356 71.1546 0 64.7906C3.66356 58.4263 8.99882 52.9133 15.8103 48.9807C22.6212 45.0484 30.0627 43.1844 37.4059 43.1934C52.32 43.2119 66.8254 50.9567 74.8123 64.7906C66.8254 78.624 52.32 86.3686 37.4059 86.3869Z" fill="#0F62FE" fill-opacity="0.5"/>
<path fill-rule="evenodd" clip-rule="evenodd" d="M74.812 64.7906C82.7988 50.9567 97.3052 43.2119 112.218 43.1934L112.219 43.194V43.1934C119.562 43.1844 127.003 45.0484 133.815 48.9807C140.626 52.9133 145.961 58.4263 149.625 64.7906C145.961 71.1546 140.626 76.6675 133.815 80.5997C127.003 84.5319 119.562 86.396 112.219 86.3869H112.218C97.3052 86.3686 82.7988 78.624 74.812 64.7906Z" fill="#0F62FE" fill-opacity="0.8"/>
<path fill-rule="evenodd" clip-rule="evenodd" d="M74.8113 107.982L74.8122 107.983C71.1488 114.346 65.8142 119.859 59.0031 123.791C52.191 127.724 44.7491 129.588 37.4059 129.579C33.727 123.224 31.6196 115.847 31.6196 107.982C31.6196 100.117 33.7261 92.7407 37.4059 86.3858C44.8789 73.4794 58.8385 64.7896 74.8122 64.7896C82.799 78.623 82.2541 95.0574 74.8131 107.982H74.8113Z" fill="#0F62FE" fill-opacity="0.6"/>
<path fill-rule="evenodd" clip-rule="evenodd" d="M74.8122 107.982H74.8104C67.3703 95.0574 66.8245 78.623 74.8113 64.7896C90.785 64.7896 104.745 73.4794 112.219 86.3858C115.897 92.7407 118.004 100.117 118.004 107.982C118.004 115.847 115.897 123.224 112.218 129.579C104.874 129.588 97.4324 127.724 90.6213 123.791C83.8102 119.859 78.4756 114.346 74.8113 107.983L74.8122 107.982Z" fill="#0F62FE" fill-opacity="0.7"/>
</g>
</svg>
